Coordinates
version=1
nRows=17
nColumns=38
inDegrees=no

Units are S.I. units (second, meters, Newtons, ...)
If the header above contains a line with 'inDegrees', this indicates whether rotational values are in degrees (yes) or radians (no).

endheader
time	pelvis_tilt	pelvis_list	pelvis_rotation	pelvis_tx	pelvis_ty	pelvis_tz	hip_flexion_r	hip_adduction_r	hip_rotation_r	knee_angle_r	ankle_angle_r	subtalar_angle_r	mtp_angle_r	hip_flexion_l	hip_adduction_l	hip_rotation_l	knee_angle_l	ankle_angle_l	subtalar_angle_l	mtp_angle_l	lumbar_extension	lumbar_bending	lumbar_rotation	arm_flex_r	arm_add_r	arm_rot_r	elbow_flex_r	pro_sup_r	wrist_flex_r	wrist_dev_r	arm_flex_l	arm_add_l	arm_rot_l	elbow_flex_l	pro_sup_l	wrist_flex_l	wrist_dev_l
60	-1.83068	1.35285	-1.06031	0.838969	-0.36355	0.942108	-0.261589	0.0457866	-0.158412	0.139915	-0.379042	0	0	-0.182474	-0.327227	-0.507901	0.240849	-0.36643	0	0	-0.552688	0.279793	-0.0955968	-0.522038	-0.528843	-1.5708	1.04881	0.875304	0	0	0.281674	-0.500067	1.29629	0.745945	0.895536	0	0
60.01	-1.8854	1.36975	-1.01272	0.837457	-0.363042	0.941122	-0.240808	0.04684	-0.153735	0.138376	-0.379949	0	0	-0.15541	-0.33978	-0.525126	0.267971	-0.360582	0	0	-0.53335	0.279722	-0.072026	-0.58076	-0.452155	-1.5708	1.10062	0.987369	0	0	0.20925	-0.429313	1.06201	0.650778	1.07228	0	0
60.02	-1.89044	1.3691	-1.01264	0.837092	-0.362192	0.941142	-0.240467	0.0474507	-0.154041	0.138805	-0.380402	0	0	-0.154201	-0.343775	-0.520399	0.27342	-0.360278	0	0	-0.537473	0.273557	-0.0628549	-0.57326	-0.436926	-1.5708	1.10549	0.986911	0	0	0.202125	-0.431537	1.05607	0.645916	1.07156	0	0
60.03	-1.895	1.36811	-1.01307	0.836644	-0.361308	0.941158	-0.237949	0.0491055	-0.157351	0.141774	-0.381517	0	0	-0.153516	-0.348681	-0.515509	0.279186	-0.35997	0	0	-0.541703	0.267157	-0.0525235	-0.565451	-0.419547	-1.5708	1.1121	0.98605	0	0	0.195301	-0.432956	1.04884	0.640298	1.07034	0	0
60.04	-1.90319	1.36743	-1.00943	0.836232	-0.360407	0.941142	-0.235964	0.0503245	-0.157292	0.145726	-0.38167	0	0	-0.151712	-0.354855	-0.508889	0.285152	-0.359895	0	0	-0.545207	0.261229	-0.0419993	-0.556392	-0.40145	-1.5708	1.11908	0.984799	0	0	0.188587	-0.433951	1.04004	0.634411	1.06889	0	0
60.05	-1.91331	1.36731	-1.00332	0.835861	-0.359565	0.941077	-0.23361	0.0517046	-0.157257	0.148772	-0.381381	0	0	-0.148692	-0.361558	-0.500801	0.291173	-0.360279	0	0	-0.547778	0.255647	-0.0321239	-0.545453	-0.383511	-1.5708	1.12587	0.983925	0	0	0.181194	-0.434651	1.02809	0.628743	1.06711	0	0
60.06	-1.92709	1.36785	-0.993794	0.835504	-0.358719	0.940934	-0.232102	0.0523044	-0.153616	0.150637	-0.380133	0	0	-0.144686	-0.368624	-0.492205	0.29697	-0.361109	0	0	-0.549355	0.249983	-0.0219144	-0.532694	-0.366126	-1.5708	1.13115	0.984497	0	0	0.173716	-0.434548	1.01477	0.622655	1.06636	0	0
60.07	-1.94059	1.3687	-0.985141	0.83496	-0.358001	0.940745	-0.227807	0.054394	-0.156014	0.151751	-0.38055	0	0	-0.141445	-0.375074	-0.485469	0.302007	-0.362297	0	0	-0.550272	0.243439	-0.0103084	-0.51931	-0.349207	-1.5708	1.13366	0.987747	0	0	0.166523	-0.433779	1.0012	0.616192	1.06665	0	0
60.08	-1.95647	1.36996	-0.973858	0.834412	-0.357277	0.940455	-0.223936	0.0557129	-0.154072	0.154093	-0.380433	0	0	-0.137449	-0.381599	-0.478392	0.307246	-0.363596	0	0	-0.549896	0.236797	0.00246308	-0.505997	-0.332003	-1.5708	1.13463	0.995194	0	0	0.159945	-0.432399	0.986473	0.609564	1.06731	0	0
60.09	-1.97565	1.37177	-0.959082	0.833793	-0.356677	0.940081	-0.219434	0.0572036	-0.152667	0.156397	-0.379437	0	0	-0.132561	-0.388158	-0.472914	0.31289	-0.365041	0	0	-0.546132	0.230192	0.0198539	-0.495588	-0.314135	-1.5708	1.1318	1.02062	0	0	0.155899	-0.424689	0.967083	0.594896	1.07234	0	0
60.1	-1.98796	1.36953	-0.949845	0.833002	-0.356546	0.939472	-0.220879	0.0596625	-0.15588	0.156669	-0.37784	0	0	-0.132331	-0.396378	-0.471297	0.31985	-0.363578	0	0	-0.532886	0.226325	0.0473252	-0.470645	-0.350327	-1.5708	1.06659	1.01211	0	0	0.167442	-0.406399	0.982633	0.559088	1.06851	0	0
60.11	-2.02086	1.37725	-0.920742	0.832627	-0.356138	0.939398	-0.208703	0.0597449	-0.151347	0.159393	-0.377716	0	0	-0.12052	-0.397749	-0.458387	0.320903	-0.365077	0	0	-0.541566	0.218304	0.0429108	-0.518537	-0.300249	-1.46458	1.12105	1.04863	0	0	0.13153	-0.406601	0.869856	0.570984	1.13235	0	0
60.12	-2.04466	1.38008	-0.899792	0.832082	-0.356097	0.939032	-0.203722	0.0609212	-0.150168	0.159409	-0.378134	0	0	-0.114427	-0.401567	-0.452932	0.324481	-0.364163	0	0	-0.540456	0.212283	0.0495434	-0.539217	-0.304453	-1.377	1.11565	1.04849	0	0	0.117361	-0.404194	0.827123	0.571489	1.14609	0	0
60.13	-2.11525	1.39221	-0.833184	0.830325	-0.356303	0.93763	-0.186324	0.0619949	-0.148343	0.159487	-0.376815	0	0	-0.0960508	-0.405636	-0.450715	0.329447	-0.36073	0	0	-0.513952	0.204159	0.0744823	-0.57172	-0.306278	-1.29947	1.0944	1.06333	0	0	0.125531	-0.386207	0.832865	0.537235	1.14399	0	0
60.14	-2.13883	1.39396	-0.811377	0.829579	-0.356612	0.937191	-0.18367	0.0632973	-0.147515	0.157444	-0.377228	0	0	-0.0922583	-0.407948	-0.446594	0.330962	-0.358416	0	0	-0.509016	0.19861	0.0866723	-0.587206	-0.311031	-1.21724	1.0898	1.08483	0	0	0.122267	-0.383187	0.820859	0.533146	1.14041	0	0
60.15	-2.15426	1.39457	-0.796397	0.829003	-0.357145	0.936904	-0.183162	0.0643575	-0.146965	0.154969	-0.377846	0	0	-0.0901913	-0.409237	-0.443822	0.331917	-0.356092	0	0	-0.507264	0.193769	0.0941491	-0.595873	-0.317382	-1.13297	1.08929	1.10918	0	0	0.11478	-0.382461	0.799787	0.535998	1.1386	0	0
60.16	-2.16864	1.39527	-0.781681	0.828479	-0.357873	0.936618	-0.182997	0.0652046	-0.145685	0.151953	-0.378515	0	0	-0.0882807	-0.409582	-0.442548	0.332435	-0.352989	0	0	-0.505769	0.189108	0.0992372	-0.600733	-0.325473	-1.04555	1.09103	1.13047	0	0	0.106692	-0.382032	0.779488	0.539485	1.14432	0	0
